<?xml version="1.0" standalone="no"?>
<!DOCTYPE svg PUBLIC "-//W3C//DTD SVG 20010904//EN"
 "http://www.w3.org/TR/2001/REC-SVG-20010904/DTD/svg10.dtd">
<svg version="1.0" xmlns="http://www.w3.org/2000/svg"
 width="566.000000pt" height="566.000000pt" viewBox="0 0 566.000000 566.000000"
 preserveAspectRatio="xMidYMid meet">
<metadata>
Created by potrace 1.14, written by Peter Selinger 2001-2017
</metadata>
<g transform="translate(0.000000,566.000000) scale(0.100000,-0.100000)"
fill="#000000" stroke="none">
<path d="M2948 5315 c-2 -1 -42 -5 -89 -9 -47 -4 -95 -8 -106 -10 -11 -3 -44
-7 -74 -11 -79 -9 -305 -70 -374 -100 -16 -7 -59 -25 -95 -40 -112 -45 -266
-127 -327 -172 -63 -48 -75 -49 -171 -16 -104 35 -303 37 -396 4 -113 -40
-216 -124 -241 -197 -15 -44 -14 -52 16 -133 19 -55 20 -64 8 -103 -12 -36
-25 -50 -84 -90 -105 -71 -142 -123 -151 -209 -4 -41 0 -59 23 -101 37 -68
113 -134 200 -174 l72 -33 -9 -33 c-5 -18 -11 -51 -15 -73 -9 -63 -16 -108
-20 -130 -2 -11 -4 -37 -4 -57 l-1 -38 -67 0 c-161 0 -244 -96 -169 -195 33
-43 37 -71 16 -98 -17 -21 -28 -22 -172 -28 -178 -6 -217 -19 -266 -91 -73
-108 -70 -213 10 -303 41 -48 90 -71 164 -80 73 -8 123 -35 126 -67 5 -75 -33
-125 -136 -179 -139 -73 -193 -130 -232 -245 -31 -94 -26 -172 19 -266 62
-127 187 -230 407 -336 98 -47 211 -123 253 -170 27 -30 34 -96 13 -127 -10
-15 -48 -46 -86 -71 -150 -97 -191 -183 -140 -289 33 -69 112 -111 198 -106
18 1 72 16 120 32 183 65 251 81 332 75 191 -13 252 -64 204 -171 -36 -80 -35
-121 3 -160 41 -40 82 -58 136 -58 42 0 58 7 118 49 200 141 251 173 304 193
66 25 105 21 135 -12 33 -35 26 -96 -21 -193 -47 -93 -27 -81 -213 -129 -88
-23 -121 -53 -139 -125 -20 -79 -17 -85 56 -87 34 -1 457 -4 940 -7 l878 -5
14 31 c11 29 11 38 -7 83 -11 27 -27 58 -35 67 -14 16 -107 49 -175 63 -21 4
-28 11 -28 30 0 43 -17 71 -88 142 -98 98 -112 156 -60 242 25 40 106 81 161
81 80 0 126 -45 195 -190 93 -196 197 -299 364 -357 128 -45 264 -38 428 22
102 37 125 50 197 107 127 101 219 286 239 485 12 114 51 169 172 241 93 56
149 106 193 175 39 60 73 152 83 222 9 59 -15 155 -55 220 -30 50 -61 83 -176
186 -18 16 -42 48 -54 70 -20 40 -20 44 -5 83 9 22 40 71 70 108 70 87 100
171 94 266 -5 86 -35 147 -108 221 -75 77 -128 112 -268 177 -159 74 -147 64
-146 120 1 27 2 83 3 124 0 41 1 93 1 115 1 55 41 119 93 149 23 13 80 39 126
58 156 62 241 175 247 330 5 124 -30 210 -117 297 -99 98 -204 137 -518 197
-51 10 -98 45 -113 83 -5 14 -13 69 -18 123 -10 106 -21 136 -69 184 -71 72
-147 83 -271 40 l-73 -26 -81 52 c-288 185 -479 271 -676 304 -14 3 -56 11
-95 19 -38 7 -95 17 -125 20 -54 7 -267 15 -272 10z m327 -90 c17 -3 68 -13
115 -21 239 -43 437 -131 680 -303 261 -186 425 -379 574 -678 138 -279 195
-522 200 -863 2 -160 -8 -230 -60 -419 -95 -343 -152 -461 -346 -718 -149
-197 -389 -389 -628 -501 -63 -29 -260 -97 -310 -106 -14 -3 -47 -9 -75 -15
-158 -31 -269 -40 -445 -36 -91 2 -174 5 -185 8 -11 3 -40 8 -65 12 -105 17
-237 44 -296 61 -135 38 -338 132 -447 206 -137 93 -356 306 -451 437 -71 100
-122 196 -195 367 -121 288 -156 465 -156 784 1 366 39 549 167 807 102 205
231 378 370 498 181 157 295 230 473 305 219 93 434 149 670 175 33 4 62 9 64
11 7 6 311 -3 346 -11z m-1593 -307 c46 -11 85 -22 87 -24 2 -2 -43 -50 -101
-106 -175 -172 -272 -305 -373 -513 -40 -82 -78 -167 -85 -188 l-12 -39 -29
28 c-36 34 -69 101 -69 139 0 22 16 43 74 99 58 56 76 79 81 109 12 60 -1 105
-42 154 -119 141 -119 195 -1 276 123 85 293 108 470 65z m2796 -24 c64 -41
91 -104 92 -209 1 -127 36 -182 135 -216 44 -14 43 -14 100 -23 226 -36 335
-76 418 -155 82 -77 115 -144 119 -246 l3 -60 -36 -17 c-64 -30 -152 -56 -212
-62 -69 -7 -137 -35 -190 -77 l-37 -30 -9 24 c-5 13 -12 40 -15 60 -11 71 -80
255 -143 382 -102 206 -196 340 -342 486 l-127 126 56 21 c30 12 64 23 75 25
29 5 82 -9 113 -29z m-3289 -322 c71 -105 65 -151 -31 -237 -29 -26 -61 -59
-70 -74 -35 -51 -15 -124 52 -197 43 -46 54 -94 23 -94 -26 0 -146 75 -188
117 -69 68 -85 136 -50 204 18 34 85 93 134 118 70 36 111 122 90 194 -4 15
-6 27 -4 27 2 0 22 -26 44 -58z m4126 -670 c-38 -90 -88 -131 -233 -192 -65
-28 -114 -56 -135 -77 -36 -37 -52 -41 -54 -14 -1 10 -6 44 -12 76 -9 46 -8
60 5 80 35 53 131 96 249 111 28 3 75 16 105 28 30 12 63 22 72 23 16 2 17 -1
3 -35z m-4221 -353 c2 -2 6 -79 9 -171 3 -92 7 -171 10 -175 3 -4 8 -29 11
-55 4 -26 9 -53 11 -60 2 -7 7 -26 10 -43 8 -42 15 -74 24 -117 l9 -37 -35 34
c-31 30 -120 71 -131 61 -2 -3 18 -14 46 -26 64 -28 100 -66 122 -130 21 -61
17 -127 -9 -179 -24 -45 -44 -68 -101 -110 -25 -19 -57 -48 -72 -64 -43 -46
-33 -18 13 38 113 136 117 233 13 323 -48 43 -116 67 -234 83 -41 5 -82 10
-90 10 -37 1 -109 32 -134 58 -29 30 -37 68 -25 114 8 29 -1 36 -21 13 -35
-43 -13 -128 44 -170 50 -37 109 -54 226 -61 107 -8 171 -30 220 -77 86 -83
82 -144 -16 -265 -75 -92 -90 -167 -53 -275 37 -111 66 -139 289 -285 181
-118 206 -149 217 -264 5 -55 2 -65 -46 -167 -28 -59 -51 -118 -51 -130 0 -58
51 -107 137 -133 38 -11 49 -9 105 11 93 33 171 74 252 133 132 97 153 107
219 114 60 5 64 4 125 -37 47 -31 78 -64 125 -130 68 -95 97 -121 178 -151 47
-18 172 -29 204 -18 6 2 27 0 48 -5 l38 -7 -7 -59 c-8 -76 -1 -102 42 -150 45
-50 42 -79 -17 -157 -38 -51 -117 -118 -127 -109 -2 3 8 35 23 73 32 78 43
175 25 227 -14 43 -57 81 -129 114 -69 32 -164 36 -236 12 -73 -25 -206 -101
-305 -175 -106 -79 -195 -124 -261 -132 -51 -6 -55 -3 -39 27 38 71 9 137 -81
185 -31 17 -71 40 -90 53 -77 51 -166 53 -324 7 -82 -25 -122 -30 -199 -26
-20 1 -41 14 -68 41 -41 44 -46 44 -23 1 8 -16 33 -37 56 -48 65 -31 133 -29
251 8 139 43 211 48 266 20 23 -12 42 -23 42 -24 0 -2 -42 -3 -92 -3 -84 -1
-108 -6 -249 -52 -125 -41 -165 -50 -203 -46 -97 9 -145 47 -151 120 -6 57 22
98 120 177 87 71 140 137 150 187 22 108 -7 196 -89 280 -52 53 -67 64 -241
173 -129 81 -204 148 -238 212 -17 32 -22 58 -22 125 0 75 4 93 31 151 20 41
49 82 79 110 119 110 131 128 121 183 -6 33 -42 89 -67 105 -10 6 -33 13 -51
16 -134 22 -198 63 -222 145 -20 67 -10 139 25 184 46 58 99 72 259 66 74 -3
137 16 172 50 36 36 35 57 -2 123 -16 30 -30 63 -30 73 0 39 49 73 125 86 23
4 85 2 89 -3z m3873 -435 c98 -43 139 -65 113 -58 -14 4 -60 15 -103 25 -87
19 -92 22 -84 44 8 19 6 20 74 -11z m-9 -60 c61 -10 186 -54 247 -89 106 -59
165 -140 172 -238 8 -91 -14 -156 -83 -245 -62 -82 -84 -127 -84 -172 0 -53
39 -118 104 -173 101 -87 143 -134 171 -193 31 -66 29 -92 -16 -183 -19 -38
-50 -78 -82 -106 -63 -56 -208 -146 -337 -210 -153 -76 -214 -124 -250 -195
-13 -27 -15 -43 -8 -68 12 -45 42 -57 112 -45 44 8 58 7 67 -4 9 -10 4 -21
-25 -47 -37 -35 -81 -49 -191 -61 -189 -21 -342 -169 -284 -277 6 -11 29 -28
51 -38 84 -37 207 -2 287 82 56 58 40 69 -20 13 -27 -25 -68 -55 -92 -65 -48
-22 -130 -26 -167 -7 -32 16 -52 59 -44 91 10 41 78 110 137 139 55 27 75 31
172 42 112 12 190 56 201 113 8 40 -18 55 -78 45 -24 -4 -49 -7 -55 -6 -7 0
-19 1 -27 2 -22 2 -28 36 -13 73 27 64 118 134 257 198 104 48 261 146 324
202 47 42 79 91 115 178 9 21 9 19 5 -15 -9 -74 -33 -141 -72 -201 -39 -60
-75 -91 -217 -185 -75 -49 -139 -115 -160 -164 -13 -30 -18 -54 -30 -150 -9
-66 -56 -186 -103 -264 -75 -124 -168 -193 -333 -248 -75 -26 -99 -29 -191
-28 -88 2 -113 6 -151 25 -112 56 -228 208 -275 360 -53 174 -64 205 -86 249
-45 88 -144 152 -241 156 -27 1 -50 6 -50 11 1 13 65 216 74 233 8 16 19 23
71 45 19 8 69 29 110 47 65 27 87 32 166 32 144 0 226 -42 190 -98 -21 -31
-47 -45 -99 -51 -167 -19 -215 -39 -233 -94 -15 -45 2 -81 54 -114 88 -55 175
-71 372 -70 146 1 253 23 396 79 176 71 302 199 319 326 4 24 8 55 10 69 6 37
7 162 1 186 -10 48 -36 92 -76 132 -24 23 -47 42 -52 42 -16 0 -86 71 -98 100
-18 43 -5 92 39 147 55 70 61 85 61 153 0 75 -34 147 -86 182 -19 13 -34 28
-34 33 0 6 11 45 25 88 13 43 31 112 40 154 19 89 22 96 43 88 8 -3 31 -8 50
-11z m-3708 -371 c53 -157 151 -334 268 -487 88 -115 281 -292 417 -385 83
-56 83 -56 39 -79 -60 -31 -114 -87 -192 -198 -92 -131 -120 -158 -189 -184
-83 -31 -136 -20 -187 40 -29 35 -30 32 34 162 28 58 42 102 45 137 4 69 -25
174 -58 209 -15 15 -84 62 -154 105 -163 100 -214 137 -248 181 -54 71 -70
167 -39 232 9 19 52 64 96 100 90 75 113 107 128 181 6 29 13 53 14 53 2 0 14
-30 26 -67z m3572 -45 c51 -60 59 -129 23 -198 -7 -14 -50 -58 -94 -98 -119
-108 -140 -164 -97 -258 25 -54 72 -97 170 -155 73 -43 118 -94 139 -159 14
-43 14 -55 2 -95 -17 -58 -79 -139 -144 -188 -57 -44 -183 -98 -298 -128 -85
-22 -281 -31 -382 -16 -162 23 -242 72 -205 125 16 24 42 30 184 47 132 16
197 91 144 168 -32 48 -102 74 -204 77 -39 0 -42 2 -25 12 47 27 266 201 326
259 160 157 325 405 394 592 10 26 23 47 29 47 6 0 23 -15 38 -32z m-4235
-180 c-35 -47 -57 -123 -58 -202 -2 -132 68 -222 271 -350 250 -157 306 -208
336 -307 13 -41 10 -107 -4 -121 -7 -7 -12 0 -17 21 -13 59 -147 171 -282 234
-181 85 -341 218 -392 327 -22 47 -26 69 -26 145 1 99 18 149 74 212 27 31
111 86 119 78 2 -2 -7 -19 -21 -37z m4199 -167 c-23 -43 -5 -93 52 -144 118
-106 151 -145 166 -198 9 -29 16 -75 16 -103 l-1 -51 -24 49 c-28 58 -55 82
-154 138 -128 72 -158 110 -152 193 2 34 42 97 80 125 34 25 34 25 17 -9z
m-2594 -630 l104 -49 28 -73 c43 -117 95 -216 119 -231 31 -21 159 -68 182
-68 16 0 17 -2 6 -9 -20 -13 -67 -6 -134 19 -74 28 -103 53 -162 140 -53 79
-122 144 -175 167 -76 32 -203 3 -275 -64 -25 -24 -142 -106 -174 -123 -17 -9
-11 1 18 31 23 24 57 67 76 94 90 135 182 214 251 215 17 0 78 -22 136 -49z
m293 -100 c44 -11 103 -23 130 -27 28 -3 52 -8 55 -9 30 -18 446 -27 585 -13
79 8 211 31 298 52 33 8 60 10 63 4 8 -12 -5 -65 -19 -76 -15 -13 -177 -51
-241 -58 -27 -2 -52 -7 -57 -9 -42 -26 -528 -27 -634 -1 -11 2 -60 14 -110 26
-144 33 -154 38 -170 77 -20 48 -19 66 3 59 9 -3 53 -14 97 -25z m26 -176 c19
-3 63 -12 99 -20 36 -7 85 -16 110 -19 25 -3 54 -8 65 -10 11 -3 23 -5 28 -5
12 -2 8 -31 -5 -32 -70 -8 -316 41 -343 68 -15 14 -11 38 4 29 4 -3 23 -8 42
-11z m413 -64 c10 -15 -19 -42 -37 -35 -17 6 -23 25 -10 37 9 10 41 9 47 -2z
m824 -17 c108 -45 141 -99 223 -369 11 -38 37 -97 57 -130 45 -76 138 -187
175 -210 16 -9 27 -19 24 -21 -12 -12 -137 62 -177 105 -39 42 -73 97 -127
207 -46 95 -70 131 -119 180 -195 192 -455 170 -531 -46 -36 -101 -6 -187 116
-329 l43 -52 -52 21 c-96 38 -217 135 -249 200 -34 67 -34 84 4 140 49 72 55
110 30 185 -5 18 -2 21 32 23 125 8 348 69 379 103 16 18 26 19 77 14 32 -3
75 -12 95 -21z m-863 -146 c-12 -64 -10 -95 9 -113 22 -23 20 -37 -5 -33 -33
5 -64 53 -63 97 1 43 29 91 51 91 13 0 14 -8 8 -42z m785 -18 c27 -14 25 -16
-12 -15 -18 1 -51 -7 -73 -18 -159 -77 -184 -259 -49 -362 47 -36 94 -85 95
-99 0 -6 2 -21 5 -34 3 -19 0 -22 -13 -18 -19 5 -80 20 -124 30 -32 7 -171
166 -199 228 -38 84 -18 186 51 258 52 54 130 72 232 53 37 -7 77 -17 87 -23z
m-1104 -15 c149 -44 179 -159 96 -369 -17 -42 -25 -52 -63 -66 -95 -37 -94
-38 -59 19 38 60 47 110 30 152 -14 33 -82 89 -109 89 -9 0 -3 -8 15 -19 42
-25 72 -66 80 -107 9 -46 -43 -157 -83 -177 -31 -16 -83 -30 -83 -23 0 3 18
39 40 81 79 149 35 248 -110 249 -47 0 -66 -7 -132 -44 -42 -24 -105 -65 -140
-92 -135 -104 -149 -112 -208 -116 -50 -4 -58 -1 -83 24 -30 29 -45 71 -31 84
5 4 33 10 62 13 73 8 160 51 288 143 220 160 349 201 490 159z m354 -310 c0
-22 -79 -114 -126 -148 -69 -48 -184 -86 -184 -59 0 4 32 22 71 40 66 31 130
86 202 171 18 22 37 20 37 -4z m-355 -337 c562 2 1148 0 1257 -7 19 -1 32 -10
43 -31 8 -16 15 -34 15 -40 0 -10 -1780 -13 -1807 -3 -12 5 -11 13 9 66 l11
28 106 -7 c58 -4 223 -7 366 -6z"/>
<path d="M3018 5145 c-2 -2 -40 -6 -85 -9 -80 -6 -177 -21 -191 -30 -4 -2 -28
-7 -52 -11 -123 -17 -179 -32 -314 -80 -467 -168 -807 -501 -994 -976 -25 -62
-34 -91 -47 -149 -1 -3 -4 -18 -8 -35 -12 -52 -17 -78 -22 -140 -3 -33 -7 -76
-10 -95 -11 -107 -19 -186 -18 -190 1 -3 4 -36 8 -75 6 -64 18 -171 31 -270
16 -120 47 -231 101 -355 198 -455 453 -731 828 -897 65 -28 392 -133 460
-147 17 -4 41 -9 55 -11 89 -18 394 -25 509 -12 286 33 629 176 829 347 126
107 255 241 304 315 106 162 227 409 256 525 35 139 73 303 78 332 12 77 12
357 0 448 -31 225 -66 334 -185 583 -57 118 -192 306 -291 406 -170 169 -488
376 -680 443 -92 32 -266 67 -358 73 -151 10 -201 12 -204 10z m-328 -260 c15
-18 5 -35 -21 -35 -12 0 -19 7 -19 18 0 33 20 42 40 17z m528 -48 c2 -12 -3
-17 -17 -17 -12 0 -21 6 -21 13 0 31 32 34 38 4z m256 -91 c3 -14 17 -38 31
-54 l25 -29 -24 -26 c-14 -15 -27 -36 -31 -47 -6 -20 -25 -28 -25 -10 0 5 -14
25 -31 45 l-31 35 31 35 c17 20 31 45 31 55 0 28 17 25 24 -4z m-939 -127 c95
-28 172 -71 229 -127 45 -44 73 -89 62 -100 -3 -2 -36 16 -74 41 -109 72 -132
79 -269 85 -113 4 -126 3 -190 -22 -148 -56 -301 -227 -328 -366 -4 -19 -9
-82 -12 -140 -5 -100 -3 -109 26 -186 45 -116 107 -204 175 -248 16 -10 66
-33 110 -50 69 -27 93 -32 161 -30 82 1 149 10 175 24 8 4 44 18 80 30 66 23
161 86 179 117 5 10 13 15 16 11 4 -4 -6 -30 -22 -59 -55 -101 -220 -216 -365
-254 -35 -10 -87 -13 -153 -11 -181 7 -290 51 -400 160 -58 58 -80 90 -119
171 -91 191 -102 292 -49 490 34 126 124 275 207 341 65 52 178 110 256 132
79 23 210 19 305 -9z m632 -116 c-12 -12 -20 -14 -28 -6 -7 7 -5 15 7 27 12
12 20 14 27 7 8 -8 6 -16 -6 -28z m733 3 c0 -18 -15 -36 -31 -36 -21 0 -22 1
-13 24 5 14 44 24 44 12z m-286 -221 c2 -7 -2 -19 -11 -26 -13 -11 -17 -10
-29 6 -10 13 -11 22 -3 31 12 15 35 9 43 -11z m377 -2 c5 -49 27 -93 54 -105
32 -14 31 -19 -8 -43 -21 -13 -35 -33 -43 -60 l-11 -40 -18 43 c-11 26 -28 48
-46 58 -35 18 -35 21 -5 45 21 16 32 37 50 92 5 17 25 24 27 10z m-920 -140
c2 -48 32 -133 48 -133 3 0 14 -7 25 -15 17 -13 16 -16 -23 -53 -30 -28 -41
-47 -42 -70 -1 -18 -3 -36 -4 -42 -1 -5 -3 -14 -4 -20 0 -5 -6 -10 -12 -10 -5
0 -8 3 -5 8 2 4 0 30 -5 57 -7 39 -17 57 -46 83 l-36 32 30 28 c40 36 53 63
53 111 0 39 19 60 21 24z m-638 -85 l22 -19 -22 -15 c-13 -9 -23 -25 -23 -35
0 -22 -22 -38 -28 -20 -2 7 -14 24 -26 38 l-22 25 26 52 25 53 13 -30 c7 -16
23 -38 35 -49z m1932 22 c0 -8 -8 -16 -17 -18 -13 -2 -18 3 -18 18 0 15 5 20
18 18 9 -2 17 -10 17 -18z m-1652 -89 c3 -12 -1 -22 -11 -26 -20 -8 -34 7 -26
28 8 23 31 21 37 -2z m887 -76 c0 -14 0 -27 0 -30 -1 -8 34 -65 40 -65 3 0 14
-7 24 -15 18 -14 17 -16 -23 -56 -29 -29 -41 -50 -43 -73 0 -17 -2 -35 -3 -41
-2 -5 -3 -17 -4 -25 -4 -27 -19 24 -19 62 0 43 -25 84 -63 104 -16 8 -29 17
-29 19 0 3 16 11 35 19 37 16 38 17 55 84 12 46 30 57 30 17z m698 -151 c13
-9 12 -18 -11 -65 -18 -36 -26 -47 -27 -32 0 12 -11 35 -25 51 -17 21 -22 33
-14 37 6 4 18 24 26 44 l16 36 10 -30 c6 -16 17 -35 25 -41z m-1050 3 c2 -10
-3 -17 -12 -17 -18 0 -29 16 -21 31 9 14 29 6 33 -14z m-1722 -8 c10 -16 -23
-46 -36 -33 -6 6 -8 18 -4 27 7 19 29 22 40 6z m1067 -22 c3 -8 1 -20 -4 -28
-7 -12 -11 -11 -25 3 -17 17 -12 38 11 38 7 0 15 -6 18 -13z m1424 -193 c7
-20 -11 -38 -32 -30 -13 4 -14 10 -5 26 13 24 28 26 37 4z m-2287 -69 c0 -8
-6 -15 -14 -15 -17 0 -28 14 -19 24 12 12 33 6 33 -9z m2833 -44 c41 -23 93
-91 107 -139 23 -85 4 -213 -40 -260 -27 -29 -82 -43 -123 -31 -74 20 -111
112 -68 169 38 52 22 67 -25 26 -25 -20 -28 -30 -28 -80 1 -63 20 -99 70 -128
41 -24 120 -30 155 -12 15 7 32 14 38 14 11 0 -10 -95 -39 -178 -12 -31 -25
-74 -31 -96 -13 -50 -101 -219 -171 -326 -75 -115 -164 -214 -269 -302 -35
-29 -73 -61 -84 -71 -20 -18 -21 -18 -55 21 -55 61 -100 83 -175 86 -106 5
-158 -29 -214 -141 -40 -81 -18 -88 32 -10 66 103 121 129 222 106 47 -10 63
-20 96 -57 21 -24 37 -48 34 -52 -10 -17 -182 -115 -264 -150 -96 -42 -249
-95 -315 -110 -68 -15 -245 -31 -258 -24 -3 2 1 18 9 35 26 52 20 114 -13 162
-17 23 -44 51 -61 62 l-30 21 46 22 c96 44 151 127 172 262 19 129 89 187 213
177 67 -5 153 -41 161 -68 7 -22 35 -33 48 -20 7 7 7 26 0 56 -12 51 -5 96 26
167 36 86 129 150 236 163 88 10 204 -33 252 -95 23 -29 51 -95 56 -135 23
-161 -176 -275 -270 -155 -7 8 -11 30 -10 49 3 42 -16 51 -38 18 -14 -22 -14
-28 0 -63 24 -60 74 -89 155 -89 56 0 73 4 108 27 100 67 125 196 63 322 -24
49 -44 74 -78 97 -63 44 -134 69 -193 69 -55 0 -62 12 -35 60 8 14 14 47 15
74 0 62 -33 110 -88 126 -48 13 -49 13 -56 -5 -4 -12 7 -21 38 -35 51 -21 66
-43 66 -95 0 -51 -22 -87 -67 -112 -60 -34 -118 -36 -189 -8 -101 41 -144 110
-138 224 5 98 43 173 113 223 79 57 206 68 313 28 58 -21 148 -92 148 -115 0
-13 29 -30 31 -17 0 4 2 25 4 47 4 56 23 123 48 167 57 103 247 156 350 99z
m-1296 -121 c10 0 5 -11 -16 -35 -17 -20 -31 -44 -31 -55 0 -10 -3 -26 -6 -35
-9 -23 -24 0 -24 36 0 15 -9 38 -20 52 -21 26 -21 26 -1 46 11 11 23 37 27 58
l7 37 25 -52 c13 -29 31 -52 39 -52z m-1433 -45 c76 -26 138 -63 179 -108 40
-44 97 -148 97 -178 0 -29 30 -31 67 -3 61 46 136 29 163 -36 18 -43 8 -57
-72 -97 -120 -61 -191 -157 -205 -279 l-5 -42 -48 30 c-71 44 -139 48 -210 11
-66 -34 -115 -100 -126 -169 -6 -44 -7 -45 -25 -27 -43 44 -221 384 -208 398
3 2 23 -2 44 -10 84 -28 183 -1 236 66 28 35 34 52 37 103 3 52 1 64 -17 80
-24 21 -24 21 -21 -57 3 -97 -79 -165 -186 -154 -99 10 -146 69 -151 191 -2
68 1 86 23 130 47 94 120 151 213 165 67 11 160 5 215 -14z m766 -125 c-19
-12 -35 3 -26 26 6 17 8 17 24 0 15 -15 15 -18 2 -26z m500 -125 c0 -15 -26
-32 -36 -23 -2 3 -2 13 2 22 8 20 34 21 34 1z m-190 -101 c0 -20 -30 -30 -40
-13 -11 17 7 40 26 32 8 -3 14 -12 14 -19z m571 -59 c22 -8 59 -30 83 -50 47
-38 152 -95 177 -95 29 0 28 -12 -5 -54 -38 -47 -71 -122 -81 -183 -4 -24 -10
-43 -13 -43 -4 0 -32 10 -62 21 -99 38 -189 24 -263 -41 l-37 -32 -9 24 c-12
31 23 69 101 108 63 31 73 42 45 46 -26 4 -78 -20 -131 -61 -25 -19 -46 -31
-46 -26 0 5 -25 39 -55 76 -30 36 -55 74 -55 83 0 37 49 120 95 160 79 69 176
95 256 67z m-864 -41 c71 -33 111 -72 148 -146 l35 -71 -34 -38 c-45 -49 -65
-88 -72 -143 -12 -82 39 -182 106 -208 62 -24 142 -3 174 47 27 41 14 49 -27
17 -50 -40 -99 -49 -139 -25 -50 29 -71 65 -74 129 -6 140 110 236 256 213
105 -17 180 -73 224 -168 15 -34 21 -66 21 -126 0 -144 -53 -231 -175 -287
l-64 -30 26 -22 c14 -11 44 -35 65 -52 67 -54 79 -143 28 -198 -23 -25 -25
-25 -147 -21 -67 3 -136 7 -153 10 -16 2 -48 7 -70 11 -75 11 -226 54 -352
100 -248 90 -414 195 -586 373 -53 55 -97 105 -98 110 -4 35 -2 52 11 105 10
43 25 70 55 104 38 41 46 45 98 50 102 8 164 -33 197 -132 24 -73 66 -127 125
-162 132 -77 295 2 295 144 0 45 -34 101 -62 102 -13 0 -8 -34 7 -54 34 -45 5
-128 -57 -166 -62 -38 -144 -19 -216 48 -44 41 -65 95 -65 168 1 174 123 321
285 340 29 3 54 7 55 8 9 8 149 -16 180 -30z"/>
<path d="M4314 3106 c-10 -55 45 -140 78 -120 5 4 1 15 -10 28 -29 31 -42 61
-42 95 0 42 -18 39 -26 -3z"/>
<path d="M4250 2779 c0 -6 14 -22 30 -36 37 -31 72 -90 95 -161 18 -56 35 -61
35 -9 0 31 -45 136 -72 167 -32 39 -88 63 -88 39z"/>
<path d="M4390 2737 c0 -7 7 -23 16 -36 24 -33 43 -11 20 23 -18 28 -36 34
-36 13z"/>
<path d="M3349 2248 c0 -2 -2 -25 -4 -52 -6 -66 -45 -143 -102 -199 -38 -37
-43 -47 -30 -53 9 -3 29 3 47 16 77 55 140 207 114 274 -5 13 -22 22 -25 14z"/>
<path d="M1829 2948 c-1 -7 0 -27 1 -45 3 -67 -55 -156 -119 -183 -18 -7 -30
-17 -29 -22 2 -5 7 -9 11 -9 4 1 16 1 27 1 27 0 87 55 111 102 28 55 33 168 8
168 -5 0 -9 -6 -10 -12z"/>
<path d="M3470 2555 c0 -9 5 -15 11 -13 6 2 11 8 11 13 0 5 -5 11 -11 13 -6 2
-11 -4 -11 -13z"/>
<path d="M2025 2328 c20 -63 94 -141 160 -166 47 -19 112 -21 132 -6 10 7 16
14 13 14 -3 1 -21 3 -40 5 -57 5 -86 12 -117 29 -36 18 -97 78 -120 117 -21
34 -37 38 -28 7z"/>
<path d="M2670 2235 c0 -22 56 -81 96 -100 23 -10 48 -15 72 -11 20 3 41 5 45
6 5 0 6 4 3 8 -3 5 -20 9 -39 10 -51 2 -82 17 -127 62 -44 44 -50 47 -50 25z"/>
<path d="M2713 1787 c2 -7 32 -23 68 -36 49 -18 84 -23 152 -23 48 -1 91 3 95
6 14 14 -25 26 -85 26 -35 0 -65 0 -68 1 -2 1 -41 9 -85 19 -56 12 -80 14 -77
7z"/>
<path d="M1382 4784 c-18 -26 -19 -26 -45 -9 -24 15 -27 15 -27 2 0 -9 10 -23
22 -31 19 -13 20 -19 10 -41 -13 -29 -6 -32 19 -9 14 12 22 13 39 4 35 -19 47
-6 18 20 -25 21 -26 25 -13 44 32 45 10 64 -23 20z"/>
<path d="M5054 4255 c-3 -8 -3 -19 1 -25 10 -16 35 7 28 26 -7 18 -22 18 -29
-1z"/>
<path d="M4979 4096 c-9 -19 -17 -25 -28 -20 -9 4 -27 9 -41 12 l-25 5 29 -31
c24 -26 27 -34 17 -46 -22 -27 -7 -41 16 -16 19 19 26 21 52 12 37 -13 42 1
10 27 -19 15 -20 20 -9 40 8 16 9 26 1 34 -7 7 -14 2 -22 -17z"/>
<path d="M817 3093 c-12 -12 -7 -41 7 -46 24 -10 39 18 21 37 -19 18 -19 18
-28 9z"/>
<path d="M781 2253 c-21 -26 -22 -26 -56 -10 -29 14 -35 14 -35 2 0 -7 10 -21
22 -29 22 -16 22 -16 4 -47 -24 -41 -12 -49 23 -15 28 27 30 27 55 11 36 -24
48 -8 14 18 l-27 22 20 32 c25 39 8 53 -20 16z"/>
<path d="M2005 1271 c-3 -5 -1 -12 5 -16 12 -7 30 2 30 16 0 12 -27 12 -35 0z"/>
<path d="M1903 1113 c-21 -8 -16 -43 6 -43 24 0 33 13 25 34 -6 17 -11 18 -31
9z"/>
<path d="M5036 2873 c-6 -15 8 -32 26 -33 14 0 19 22 8 35 -16 19 -26 19 -34
-2z"/>
<path d="M5208 2728 c-8 -22 3 -38 27 -38 24 0 35 16 28 38 -3 6 -15 12 -28
12 -12 0 -25 -6 -27 -12z"/>
<path d="M5105 2530 c-13 -25 -19 -29 -35 -20 -26 14 -40 13 -40 -3 0 -8 11
-19 25 -25 22 -10 24 -15 15 -31 -12 -24 -13 -51 -1 -51 5 0 15 14 23 30 9 21
18 28 28 24 37 -15 57 3 23 21 -10 6 -20 11 -22 12 -2 1 1 16 7 32 15 41 -3
50 -23 11z"/>
<path d="M4547 1233 c-4 -3 -7 -15 -7 -25 0 -23 38 -25 47 -2 8 21 -24 43 -40
27z"/>
<path d="M4170 1109 c0 -12 9 -36 20 -53 l19 -32 -44 0 c-44 0 -64 -8 -52 -21
6 -5 30 -9 80 -12 16 -1 16 -4 -5 -40 -12 -22 -19 -43 -15 -47 9 -9 45 23 52
47 9 29 21 23 46 -21 13 -22 29 -40 36 -40 18 0 16 14 -7 59 -10 21 -16 41
-13 45 4 3 26 6 49 6 44 0 66 13 38 24 -9 3 -33 6 -55 6 l-39 0 25 50 c20 40
22 50 10 50 -8 0 -28 -20 -43 -45 l-28 -45 -33 45 c-18 25 -34 45 -37 45 -2 0
-4 -10 -4 -21z"/>
</g>
</svg>
