<?xml version="1.0" standalone="no"?>
<!DOCTYPE svg PUBLIC "-//W3C//DTD SVG 20010904//EN"
 "http://www.w3.org/TR/2001/REC-SVG-20010904/DTD/svg10.dtd">
<svg version="1.0" xmlns="http://www.w3.org/2000/svg"
 width="674.000000pt" height="674.000000pt" viewBox="0 0 674.000000 674.000000"
 preserveAspectRatio="xMidYMid meet">
<metadata>
Created by potrace 1.14, written by Peter Selinger 2001-2017
</metadata>
<g transform="translate(0.000000,674.000000) scale(0.100000,-0.100000)"
fill="#000000" stroke="none">
<path d="M4618 5832 c-11 -15 -31 -21 -40 -12 -8 6 -67 7 -64 1 3 -4 -1 -8 -9
-8 -8 0 -11 5 -8 10 4 7 -1 8 -13 3 -34 -14 -49 -13 -60 2 -9 12 -13 12 -19 2
-6 -9 -4 -11 5 -5 8 5 11 4 7 -3 -7 -11 -32 -11 -43 1 -4 4 -16 -1 -27 -10
-13 -11 -17 -12 -12 -4 6 11 4 13 -9 8 -14 -6 -17 -3 -12 10 5 15 4 15 -9 -1
-9 -12 -15 -15 -15 -7 0 11 -3 11 -17 0 -9 -8 -14 -9 -10 -3 3 6 0 11 -8 11
-8 0 -12 -4 -9 -9 3 -4 0 -8 -5 -8 -6 0 -11 5 -11 10 0 6 -5 10 -11 10 -5 0
-8 -4 -5 -8 3 -5 -1 -9 -9 -9 -8 0 -11 5 -8 11 4 6 0 5 -9 -2 -14 -11 -17 -10
-21 5 -4 16 -5 16 -6 -2 -1 -17 -3 -18 -11 -5 -6 9 -13 11 -17 5 -11 -13 -36
-18 -28 -5 9 14 -8 13 -23 -2 -9 -9 -12 -9 -12 3 0 12 -2 12 -10 -1 -5 -8 -10
-10 -10 -5 0 12 -49 13 -67 2 -6 -4 -14 -1 -16 5 -4 10 -8 9 -16 -2 -10 -13
-11 -13 -11 0 0 9 -3 11 -8 4 -12 -17 -51 -12 -45 6 4 13 3 13 -5 0 -12 -16
-60 -22 -68 -8 -3 5 -12 4 -20 -3 -11 -9 -14 -8 -14 2 0 11 -3 11 -11 -1 -9
-12 -12 -13 -16 -1 -5 11 -7 11 -14 0 -6 -10 -9 -11 -9 -1 0 6 -5 12 -11 12
-5 0 -7 -6 -3 -12 6 -10 4 -10 -8 0 -12 10 -18 10 -23 1 -6 -8 -10 -8 -15 2
-7 10 -11 10 -24 0 -13 -11 -16 -11 -16 0 0 11 -2 11 -10 -1 -6 -10 -10 -11
-10 -2 0 6 -5 12 -11 12 -5 0 -7 -6 -3 -12 6 -10 5 -10 -7 -1 -12 10 -18 10
-27 1 -9 -9 -12 -9 -12 2 0 9 -5 8 -15 -6 -10 -12 -13 -13 -10 -3 4 11 -1 15
-19 15 -14 0 -22 -4 -20 -8 8 -13 -11 -9 -25 5 -8 7 -11 7 -8 1 5 -8 -4 -11
-23 -10 -17 0 -30 5 -30 10 0 4 -6 3 -14 -3 -11 -9 -16 -9 -21 0 -6 8 -10 7
-16 -2 -8 -12 -10 -12 -18 0 -6 9 -10 10 -16 2 -5 -9 -11 -9 -23 1 -12 10 -14
10 -8 1 4 -7 2 -13 -3 -13 -6 0 -11 6 -11 13 0 8 -4 7 -10 -3 -6 -10 -10 -11
-10 -2 0 6 -5 12 -11 12 -5 0 -8 -4 -5 -8 3 -5 -1 -9 -9 -9 -8 0 -12 3 -10 7
2 3 -5 6 -15 6 -10 0 -16 -4 -14 -8 3 -4 0 -8 -5 -8 -6 0 -11 5 -11 11 0 8 -4
8 -14 0 -11 -9 -15 -9 -19 1 -4 10 -6 10 -6 1 -1 -7 -6 -13 -12 -13 -5 0 -7 6
-3 13 5 8 2 8 -9 -2 -11 -9 -17 -10 -17 -2 0 6 -5 11 -11 11 -5 0 -8 -4 -5 -8
3 -5 -1 -9 -9 -9 -8 0 -12 5 -8 10 3 5 -4 4 -15 -2 -17 -9 -23 -8 -32 6 -10
16 -11 16 -6 1 3 -12 -1 -16 -15 -15 -10 1 -19 7 -19 15 0 7 -5 10 -10 7 -6
-4 -8 -10 -6 -14 3 -4 -1 -8 -9 -8 -8 0 -11 5 -8 11 3 6 0 6 -7 -1 -11 -10
-16 -9 -27 5 -8 9 -12 12 -9 5 4 -6 2 -14 -4 -18 -5 -3 -10 0 -10 7 0 9 -3 9
-10 -2 -8 -12 -10 -12 -10 -1 0 11 -3 11 -15 1 -10 -9 -15 -9 -15 -1 0 6 -5
11 -11 11 -5 0 -8 -4 -5 -8 6 -10 -30 -9 -40 1 -4 4 -14 1 -22 -6 -13 -9 -14
-9 -8 1 9 15 -6 16 -22 0 -9 -9 -12 -9 -12 2 0 13 -2 13 -10 0 -9 -13 -10 -13
-10 0 0 13 -1 13 -10 0 -8 -12 -10 -12 -10 -1 0 10 -3 11 -14 2 -11 -10 -17
-8 -25 6 -10 17 -10 17 -11 -2 0 -15 -2 -17 -9 -7 -11 17 -21 17 -32 0 -7 -10
-9 -10 -9 0 0 6 -5 12 -11 12 -5 0 -8 -4 -5 -8 3 -5 -1 -9 -9 -9 -8 0 -15 6
-15 14 0 7 -5 13 -11 13 -5 0 -8 -4 -4 -9 3 -5 1 -12 -5 -16 -5 -3 -10 -1 -10
6 0 8 -4 8 -15 -1 -12 -10 -15 -10 -15 1 0 10 -3 10 -12 1 -9 -9 -16 -8 -30 5
-17 15 -18 15 -13 1 5 -11 2 -16 -9 -14 -8 1 -18 5 -22 9 -4 3 -15 2 -25 -3
-12 -7 -20 -7 -24 0 -5 8 -12 7 -23 -2 -9 -7 -13 -8 -9 -2 4 7 -2 14 -14 17
-16 4 -18 3 -8 -9 7 -9 8 -14 1 -14 -6 0 -14 5 -17 10 -4 6 -12 7 -18 3 -17
-11 -51 -10 -59 1 -3 5 -15 10 -26 11 -14 1 -18 -3 -14 -14 5 -14 3 -14 -11
-2 -12 9 -17 10 -17 2 0 -7 -5 -9 -10 -6 -6 4 -7 12 -3 18 3 7 -3 3 -15 -7
-20 -18 -27 -15 -22 9 1 5 -7 2 -18 -8 -10 -9 -27 -17 -37 -17 -10 0 -24 -8
-32 -17 -8 -10 -12 -13 -9 -7 3 6 -1 11 -8 11 -8 0 -12 -6 -10 -12 3 -7 -2
-18 -11 -25 -10 -8 -15 -9 -15 -1 0 6 5 11 11 11 5 0 7 5 4 11 -5 6 -12 4 -20
-8 -7 -10 -11 -22 -7 -28 3 -5 -2 -4 -11 4 -15 12 -17 11 -17 -2 0 -9 -5 -19
-12 -23 -7 -4 -8 -3 -4 4 5 8 2 10 -9 6 -12 -5 -13 -9 -4 -20 10 -12 9 -13 -5
-8 -10 4 -18 0 -22 -10 -3 -9 -11 -13 -18 -9 -6 4 -5 -1 3 -10 12 -15 12 -17
-2 -11 -12 4 -15 1 -12 -16 3 -18 2 -20 -10 -10 -11 10 -15 7 -21 -14 -3 -13
-2 -31 2 -38 5 -9 2 -9 -12 2 -10 8 -16 11 -12 6 10 -12 -12 -67 -24 -60 -6 4
-5 -3 1 -15 10 -18 9 -21 -6 -21 -14 0 -15 -2 -4 -9 10 -6 10 -13 2 -29 -8
-15 -8 -22 2 -25 7 -3 4 -6 -7 -6 -12 -1 -16 -6 -12 -17 3 -9 6 -18 6 -20 0
-3 4 -3 10 1 5 3 3 -7 -5 -22 -13 -24 -12 -30 1 -51 9 -13 13 -26 10 -30 -3
-3 -6 0 -6 6 0 7 -4 12 -8 12 -4 0 -8 -9 -8 -19 0 -11 4 -17 8 -15 4 3 8 0 8
-5 0 -6 -6 -11 -12 -11 -10 0 -9 -3 1 -9 11 -7 11 -9 0 -14 -10 -4 -8 -6 4 -6
10 -1 15 -6 12 -11 -4 -6 -11 -8 -16 -5 -5 4 -5 -4 1 -19 7 -19 6 -26 -2 -26
-7 0 -4 -6 7 -13 14 -11 15 -16 5 -22 -9 -5 -11 -4 -6 3 4 7 2 12 -3 12 -12 0
-10 -27 2 -47 5 -8 3 -13 -5 -14 -7 0 -4 -4 7 -9 14 -6 15 -9 5 -9 -21 -1 -20
-54 0 -63 12 -5 11 -7 -4 -7 -15 -1 -16 -4 -6 -16 7 -8 8 -15 3 -15 -16 0 -9
-40 7 -41 10 0 9 -3 -5 -9 -13 -6 -15 -9 -5 -9 9 -1 11 -4 5 -9 -17 -12 -12
-126 5 -134 12 -5 11 -7 -4 -7 -15 -1 -16 -4 -6 -16 7 -8 9 -15 4 -15 -5 0 -8
-35 -6 -77 1 -43 3 -98 4 -123 0 -25 6 -48 12 -52 7 -5 6 -8 -4 -8 -9 0 -16
-8 -16 -19 0 -13 5 -17 16 -13 12 5 13 3 3 -10 -7 -8 -10 -18 -6 -21 3 -4 1
-7 -6 -7 -8 0 -9 -6 -3 -17 12 -23 4 -45 -11 -36 -9 5 -9 3 0 -8 7 -8 12 -26
12 -39 1 -14 1 -35 1 -48 0 -13 4 -21 9 -17 5 3 3 -8 -5 -24 -11 -23 -12 -35
-5 -50 13 -23 14 -34 3 -27 -4 3 -7 -10 -5 -27 2 -18 4 -39 5 -47 0 -8 6 -21
12 -29 8 -11 8 -13 0 -8 -7 4 -14 -3 -16 -18 -4 -18 -2 -23 6 -16 8 7 12 4 12
-8 0 -13 -5 -17 -16 -13 -12 5 -13 3 -3 -9 7 -9 9 -20 3 -29 -6 -10 -3 -21 7
-33 16 -17 16 -17 -3 -11 -18 7 -18 7 1 -16 11 -13 14 -20 8 -16 -8 4 -13 1
-13 -8 0 -9 5 -16 10 -16 7 0 7 -7 0 -21 -18 -32 -20 -59 -6 -53 7 3 13 -2 13
-10 0 -8 -4 -13 -9 -10 -4 3 -8 -2 -8 -10 0 -9 6 -16 13 -16 8 0 7 -4 -3 -10
-8 -5 -10 -10 -5 -10 6 0 3 -5 -5 -10 -13 -8 -12 -10 3 -10 17 0 17 -2 3 -15
-16 -17 -11 -45 8 -45 6 0 4 -5 -4 -10 -8 -5 -10 -10 -5 -10 6 0 3 -5 -5 -10
-12 -8 -12 -10 5 -10 12 0 16 -3 9 -8 -20 -13 -22 -37 -5 -56 10 -12 11 -16 2
-11 -10 6 -12 2 -6 -15 5 -17 4 -21 -6 -16 -8 4 -5 0 5 -8 17 -14 16 -20 -5
-18 -3 1 -6 -5 -6 -13 0 -8 4 -12 9 -9 13 8 9 -11 -4 -25 -11 -10 -9 -11 7 -5
16 6 18 5 8 -7 -15 -15 -17 -33 -4 -25 11 7 8 -8 -6 -44 -6 -14 -7 -30 -2 -36
5 -6 4 -15 -2 -21 -8 -8 -7 -13 2 -18 8 -6 10 -4 4 5 -6 9 -4 11 4 6 9 -6 9
-12 -3 -25 -14 -15 -14 -19 2 -35 9 -11 11 -16 5 -12 -7 4 -13 3 -13 -1 0 -5
6 -15 13 -22 10 -10 8 -11 -8 -6 -20 7 -20 6 -1 -9 17 -14 16 -20 -5 -18 -3 1
-6 -5 -6 -13 0 -8 4 -12 9 -9 13 8 9 -11 -4 -25 -11 -10 -9 -11 7 -5 16 6 18
5 8 -7 -15 -15 -17 -33 -4 -25 11 7 8 -8 -6 -44 -6 -14 -8 -29 -5 -35 4 -5 5
-18 3 -29 -2 -13 1 -16 11 -10 10 6 11 5 1 -7 -10 -12 -10 -18 0 -29 9 -10 9
-11 0 -6 -8 4 -13 1 -13 -8 0 -9 6 -16 13 -16 8 0 7 -4 -3 -10 -12 -8 -13 -13
-3 -29 9 -15 10 -22 1 -27 -7 -5 -8 -3 -3 6 6 9 4 11 -5 5 -10 -6 -9 -11 5
-22 11 -7 13 -13 7 -13 -7 0 -12 -5 -12 -11 0 -5 6 -7 13 -3 9 6 9 4 -1 -8 -7
-9 -9 -19 -4 -22 10 -6 8 -53 -3 -80 -5 -11 -3 -21 5 -26 10 -6 9 -9 -1 -13
-12 -4 -11 -7 1 -16 13 -9 13 -11 -2 -11 -10 0 -18 -4 -18 -10 0 -5 3 -9 8 -9
19 3 25 -2 12 -11 -11 -7 -11 -10 -2 -10 7 0 10 -5 7 -10 -4 -6 -12 -7 -18 -3
-7 4 -6 0 2 -10 7 -9 10 -17 6 -17 -4 0 -3 -6 2 -12 5 -7 8 -19 7 -25 -1 -7
-2 -18 -3 -24 0 -5 -5 -7 -11 -4 -6 3 -7 -1 -4 -9 3 -9 9 -14 13 -11 4 2 8 -2
8 -10 0 -8 -4 -12 -9 -9 -10 6 -11 -10 -1 -19 3 -4 7 -18 8 -32 0 -18 -3 -24
-14 -20 -12 5 -12 3 0 -11 15 -19 21 -47 8 -38 -5 3 -9 -2 -9 -11 0 -9 4 -14
8 -11 5 3 9 -1 9 -9 0 -8 -4 -12 -8 -9 -4 2 -6 -10 -5 -28 2 -18 -1 -38 -6
-44 -5 -7 -2 -16 7 -24 11 -9 12 -17 4 -31 -5 -10 -6 -19 -1 -19 5 0 9 -7 9
-15 0 -11 -4 -12 -13 -4 -9 8 -11 5 -7 -10 3 -12 10 -21 17 -21 6 0 4 -5 -4
-10 -13 -9 -13 -10 0 -10 13 0 13 -1 0 -10 -8 -5 -10 -10 -5 -10 12 0 13 -49
2 -68 -5 -7 -3 -12 5 -12 9 0 9 -3 -2 -10 -8 -5 -10 -10 -3 -10 12 0 12 -17 0
-37 -5 -8 -3 -13 3 -13 6 0 8 -5 5 -10 -4 -6 -10 -8 -15 -5 -4 3 -7 -3 -6 -12
2 -9 8 -19 15 -21 9 -3 9 -7 0 -18 -9 -11 -8 -14 2 -14 11 0 11 -2 -1 -10 -9
-6 -10 -10 -3 -10 11 0 11 -8 1 -50 -2 -9 3 -14 12 -12 9 2 6 -6 -10 -23 -14
-15 -20 -26 -15 -25 6 1 17 2 25 1 12 -1 11 -4 -3 -12 -15 -9 -16 -13 -5 -27
8 -10 9 -13 1 -9 -6 4 -15 3 -18 -3 -4 -6 -3 -10 2 -9 20 4 24 -2 12 -18 -10
-11 -10 -14 -1 -9 6 4 12 2 12 -3 0 -6 -6 -11 -12 -11 -10 0 -9 -3 1 -9 7 -5
9 -11 4 -14 -11 -7 -10 -63 0 -74 4 -3 -1 -15 -10 -25 -10 -11 -13 -19 -8 -18
21 5 27 -1 16 -14 -9 -10 -9 -16 -1 -21 8 -5 7 -11 -2 -23 -11 -13 -11 -14 0
-8 10 6 13 2 10 -15 -2 -13 2 -23 8 -22 6 1 11 -4 11 -12 0 -8 -7 -11 -16 -7
-14 5 -14 3 -2 -11 7 -9 18 -14 23 -11 6 4 5 -2 -1 -14 -8 -16 -7 -21 4 -26 8
-3 15 -15 15 -26 0 -14 4 -19 12 -14 8 5 9 0 5 -15 -5 -19 -3 -20 9 -10 8 7
14 8 13 3 -3 -20 1 -35 10 -30 5 3 12 -1 15 -10 4 -10 2 -13 -7 -8 -8 5 -7 2
2 -9 11 -14 16 -15 29 -5 13 10 14 10 8 1 -4 -8 -2 -13 4 -13 6 0 9 -4 6 -9
-7 -10 18 -22 37 -17 6 1 9 1 5 -1 -15 -9 -8 -25 8 -19 10 4 13 2 8 -6 -5 -7
0 -9 14 -6 16 4 19 2 15 -10 -5 -10 -2 -13 6 -8 7 5 22 0 34 -11 16 -13 18
-14 9 -1 -11 13 -11 18 0 24 7 4 10 4 6 0 -4 -5 -2 -14 5 -21 9 -9 14 -9 25 2
15 15 36 7 29 -11 -3 -7 1 -13 8 -13 7 0 11 6 8 14 -4 9 0 11 11 7 9 -3 13
-10 10 -15 -3 -5 0 -9 5 -9 6 0 11 8 11 18 1 16 1 16 11 0 11 -20 39 -13 39
11 1 9 7 3 14 -14 12 -29 13 -29 20 -7 4 12 12 22 18 22 5 0 8 -7 4 -15 -3 -8
-1 -15 4 -15 10 0 14 15 11 34 -1 5 4 4 12 -2 8 -7 18 -8 22 -4 5 4 5 1 1 -6
-4 -7 -12 -9 -18 -6 -7 4 -8 2 -4 -4 9 -15 34 -5 39 16 4 15 5 15 6 0 1 -21
17 -24 24 -5 4 10 6 10 6 0 1 -7 6 -13 12 -13 5 0 8 4 5 8 -3 5 8 8 24 8 16 0
27 -3 24 -8 -3 -4 -1 -8 5 -8 5 0 12 8 14 17 4 17 5 17 6 1 0 -10 6 -18 12
-18 5 0 8 4 5 9 -7 10 13 9 31 -2 6 -4 15 -2 19 4 4 8 3 9 -4 5 -8 -5 -10 -1
-5 10 5 15 7 15 15 0 13 -23 45 -39 45 -21 0 7 -7 11 -16 8 -13 -4 -13 -3 -2
5 18 13 39 5 44 -16 4 -15 5 -15 6 1 1 15 7 19 27 16 4 0 11 5 15 13 7 10 9
10 9 -2 0 -13 1 -13 11 0 8 12 9 11 4 -6 -4 -17 -1 -21 19 -20 14 1 28 5 32 9
4 3 -2 5 -13 3 -12 -3 -20 1 -20 10 0 10 4 11 13 3 8 -6 14 -6 18 0 8 12 41 7
41 -7 0 -6 4 -14 9 -19 5 -4 7 -4 4 2 -3 6 1 16 9 24 12 11 14 11 11 -1 -2 -7
2 -15 7 -16 6 -1 10 2 10 7 0 5 4 13 9 18 5 5 6 3 2 -4 -4 -7 -2 -13 4 -13 6
0 8 -5 4 -12 -4 -7 -3 -8 5 -4 6 4 9 13 5 19 -3 7 2 3 12 -8 13 -15 15 -16 11
-3 -3 9 0 19 9 22 9 3 12 1 9 -4 -3 -6 0 -10 9 -10 8 0 17 -6 19 -12 4 -10 6
-9 6 1 1 11 4 11 16 1 9 -7 18 -10 22 -6 3 3 1 6 -5 6 -7 0 -12 7 -12 15 0 13
4 12 22 -4 22 -21 43 -18 34 4 -3 10 2 12 20 9 18 -3 23 -1 18 7 -4 8 -3 9 5
5 6 -4 9 -11 6 -16 -3 -5 0 -12 7 -17 18 -11 39 -13 33 -3 -5 8 20 18 60 26
14 2 12 -1 -7 -12 -32 -17 -34 -21 -13 -21 8 0 15 4 15 8 0 4 11 10 25 13 14
4 23 11 20 16 -3 5 -2 11 3 14 13 8 11 -28 -2 -36 -6 -5 5 -5 24 -2 75 12 79
14 74 32 -5 14 -4 14 4 2 8 -10 8 -18 0 -27 -6 -8 -8 -16 -4 -20 3 -3 6 -1 6
6 0 7 7 11 15 8 8 -4 17 -1 21 5 5 7 2 8 -6 3 -8 -5 -11 -4 -6 3 10 17 36 3
28 -16 -5 -14 -4 -15 10 -2 9 8 14 18 11 22 -2 5 8 3 23 -2 15 -6 35 -8 46 -4
16 5 17 8 6 22 -12 15 -11 16 5 3 17 -13 17 -15 0 -35 -10 -12 -11 -15 -3 -9
18 16 47 17 52 1 3 -7 7 -5 11 6 5 11 3 15 -5 10 -7 -4 -8 -3 -4 4 4 6 14 8
24 5 15 -5 14 -3 -3 18 l-20 24 23 -19 c15 -13 19 -23 12 -30 -5 -5 -10 -15
-10 -21 0 -6 3 -7 8 0 4 6 16 17 26 25 18 14 18 13 13 -10 -4 -14 -4 -19 -1
-12 5 10 9 10 22 0 12 -10 14 -10 8 0 -9 15 6 16 20 2 7 -7 11 -6 11 4 0 8 -5
12 -10 9 -6 -3 -7 -1 -3 5 4 6 14 8 23 5 12 -5 14 -3 8 7 -5 9 -4 11 4 6 9 -6
9 -11 1 -21 -8 -10 -8 -15 1 -21 8 -4 9 -3 5 4 -9 15 6 16 20 2 7 -7 11 -6 11
4 0 8 -5 12 -10 9 -6 -3 -7 -2 -4 4 3 5 27 8 52 6 34 -3 45 0 39 8 -4 8 -3 9
5 5 9 -6 9 -11 1 -21 -8 -10 -8 -15 1 -21 8 -4 9 -3 5 4 -5 8 2 12 21 12 16 0
35 6 42 13 11 10 12 8 6 -11 -7 -23 -6 -23 14 -6 15 13 17 20 8 26 -6 4 -7 8
-2 8 20 0 55 -31 48 -43 -5 -8 -2 -8 9 0 8 7 18 10 22 6 4 -4 4 0 0 10 -7 21
2 22 21 3 8 -7 11 -17 7 -21 -4 -5 -1 -5 6 -1 11 6 11 11 0 24 -11 14 -9 14
15 -1 15 -10 27 -13 27 -8 0 6 -8 15 -17 20 -10 6 -13 11 -7 11 6 0 17 -7 25
-16 7 -9 22 -14 36 -11 15 3 28 -2 34 -12 9 -14 10 -14 5 2 -3 11 -2 15 4 12
6 -3 15 -3 21 1 8 4 7 9 -2 15 -8 5 -9 9 -3 9 6 0 17 -7 24 -15 9 -11 17 -12
30 -5 13 7 21 7 25 0 4 -6 10 -8 15 -5 5 3 11 -3 13 -12 3 -13 5 -11 6 6 1 21
3 23 14 10 6 -8 11 -12 10 -10 -2 2 9 10 23 17 28 15 64 4 64 -19 0 -8 4 -7
10 3 6 9 5 17 -3 23 -8 6 -7 7 3 4 8 -2 14 -10 12 -17 -2 -10 1 -10 14 1 10 8
15 9 11 2 -5 -8 0 -11 13 -10 11 1 20 5 20 10 0 4 4 5 10 2 5 -3 19 -8 31 -10
16 -3 19 0 14 13 -5 13 -3 14 6 5 6 -6 18 -9 27 -6 11 5 13 3 7 -7 -6 -10 -4
-11 6 -4 25 15 44 14 58 -4 12 -15 13 -15 8 8 -6 23 -5 23 8 7 12 -17 14 -17
30 5 11 14 15 17 11 6 -9 -26 -13 -44 -9 -35 3 4 10 4 15 1 7 -4 8 -2 4 4 -15
24 65 21 87 -3 10 -11 16 -14 12 -8 -8 16 38 17 67 2 15 -8 19 -8 14 0 -4 6 0
11 9 11 9 0 13 4 10 10 -9 14 48 -8 58 -23 4 -7 5 2 3 18 -5 27 -4 28 8 13 15
-20 31 -24 20 -5 -4 6 3 3 16 -8 l24 -20 -19 30 c-14 22 -14 27 -3 17 21 -17
56 -23 63 -11 4 5 11 6 17 3 7 -4 8 -2 4 4 -6 11 5 16 26 13 4 0 4 7 1 17 -6
15 -5 15 10 3 15 -12 17 -12 11 3 -6 15 9 22 38 17 4 0 5 6 2 14 -4 9 5 19 28
29 18 8 27 15 21 15 -7 1 -13 6 -13 12 0 6 7 8 16 5 14 -5 15 -4 4 9 -11 13
-10 14 6 8 17 -6 18 -5 4 12 -14 17 -13 18 9 12 17 -4 21 -3 13 5 -13 13 -4
38 15 38 8 0 11 5 8 10 -4 6 -12 8 -18 4 -7 -3 -4 1 5 9 10 8 15 17 11 20 -3
4 -1 7 6 7 9 0 9 5 0 21 -6 12 -7 19 -1 15 5 -3 13 2 16 11 4 9 1 20 -6 24
-10 7 -10 11 0 21 14 14 16 32 3 24 -5 -4 -7 3 -4 14 3 11 9 17 14 14 5 -3 6
2 3 10 -3 9 -9 14 -13 11 -4 -2 -8 2 -8 10 0 8 4 12 9 9 10 -6 6 26 -6 45 -6
9 -5 12 1 8 6 -4 13 2 16 13 3 11 1 22 -4 25 -4 3 -5 13 -2 22 5 12 3 14 -7 8
-10 -6 -11 -4 -4 6 12 20 14 38 3 45 -5 3 -6 11 -2 17 11 18 14 49 4 43 -9 -6
-7 29 4 57 5 10 3 17 -5 17 -9 0 -10 3 -1 13 7 10 7 17 0 24 -8 8 -8 17 -1 30
6 11 7 25 2 33 -5 8 -5 21 1 31 6 12 5 20 -1 24 -7 5 -8 11 -1 19 6 7 6 17 1
26 -5 8 -5 21 0 30 6 11 5 21 -1 27 -8 8 -8 17 0 30 7 14 7 24 -2 33 -9 10 -9
11 1 6 15 -9 16 10 2 19 -8 5 -7 11 1 21 9 11 9 14 -1 14 -10 0 -10 4 1 16 10
13 10 17 0 24 -11 6 -11 9 0 13 11 4 11 6 1 6 -9 1 -10 6 -2 20 7 14 6 21 -3
24 -9 4 -9 6 1 6 6 1 12 6 12 12 0 5 -4 8 -8 5 -10 -6 -9 30 1 40 10 11 8 26
-2 19 -5 -3 -13 0 -17 6 -4 8 -3 9 4 5 7 -4 12 -1 12 9 0 9 4 14 9 11 5 -4 7
3 4 14 -3 11 -9 18 -13 15 -13 -8 -5 21 10 41 8 10 10 15 3 11 -6 -4 -14 -3
-18 3 -3 5 -1 10 4 10 6 0 11 5 11 11 0 5 -6 7 -12 3 -10 -6 -10 -4 0 7 6 7
12 17 12 22 0 4 -6 5 -12 1 -9 -5 -9 -2 1 9 11 14 11 17 0 17 -9 0 -10 3 -4 8
6 4 10 14 10 22 -1 8 3 24 8 35 9 17 8 18 -5 8 -12 -10 -15 -10 -15 2 0 8 5
15 11 15 6 0 5 4 -2 9 -11 6 -10 10 5 15 17 7 17 8 -1 22 -14 10 -16 14 -5 14
12 0 12 2 -1 10 -8 5 -10 10 -5 10 6 0 10 16 11 35 0 22 -3 32 -10 28 -6 -4
-5 1 3 10 11 14 11 17 0 17 -8 0 -6 5 6 13 14 11 15 16 5 22 -9 6 -11 4 -5 -5
5 -9 4 -11 -4 -6 -6 4 -8 13 -4 19 12 19 11 97 -1 90 -6 -4 -5 1 3 10 11 14
11 17 0 17 -8 0 -6 5 6 13 14 11 15 16 5 22 -9 6 -11 4 -5 -5 5 -9 4 -11 -4
-6 -6 4 -8 13 -4 19 12 20 11 97 -1 90 -6 -4 -5 1 3 10 7 9 10 17 6 17 -4 0
-1 8 6 17 8 9 9 14 3 10 -7 -4 -15 0 -18 9 -3 8 -2 12 4 9 12 -7 8 84 -5 104
-5 10 -4 12 4 7 13 -8 9 33 -5 56 -5 8 -2 9 10 5 13 -5 15 -3 8 11 -5 9 -8 30
-7 45 1 15 -2 30 -6 33 -5 2 -6 11 -3 19 4 8 11 12 16 9 7 -4 7 0 1 12 -11 22
-10 84 1 102 5 8 2 10 -9 6 -11 -5 -14 -2 -9 10 3 9 11 13 17 9 6 -4 7 -1 1 8
-14 23 -15 51 -2 44 7 -4 4 1 -6 9 -13 11 -15 16 -6 16 7 0 11 3 8 6 -4 3 -2
18 2 34 7 23 5 28 -6 23 -10 -4 -12 0 -8 11 3 9 11 13 18 9 7 -4 7 -1 -1 9 -7
8 -10 18 -6 21 3 4 1 13 -5 20 -7 8 -9 17 -5 21 11 11 14 78 3 71 -6 -3 -7 1
-4 9 3 9 11 13 18 9 6 -4 5 1 -3 10 -7 9 -11 17 -7 17 3 0 1 12 -5 26 -8 24
-8 25 6 14 13 -11 14 -10 9 6 -4 10 -12 25 -18 33 -8 11 -8 13 0 8 7 -4 11 5
12 23 0 17 -5 30 -11 30 -7 0 -6 4 3 9 8 6 18 7 24 4 5 -3 6 -1 2 6 -4 6 -11
9 -16 6 -4 -2 -10 6 -12 20 -5 22 -3 23 10 13 13 -11 14 -10 5 7 -6 11 -9 32
-7 48 2 19 -1 25 -9 20 -9 -5 -9 -3 -1 8 13 18 16 57 3 64 -5 4 -6 12 -2 18 4
7 8 28 10 47 2 27 0 32 -8 20 -9 -12 -10 -12 -5 3 3 10 6 21 6 23 0 3 6 2 13
-2 9 -5 9 -4 0 6 -6 7 -9 19 -6 28 5 11 3 13 -7 7 -9 -6 -11 -4 -5 5 12 19 14
83 3 97 -6 7 -4 14 3 19 8 5 9 3 4 -6 -5 -8 -4 -11 2 -7 6 4 8 18 5 33 -3 19
-7 22 -13 12 -5 -7 -9 -9 -9 -5 0 4 8 20 18 34 9 15 11 24 4 19 -9 -5 -11 2
-6 29 4 29 3 36 -8 30 -10 -6 -10 -5 -1 5 6 7 9 19 6 28 -4 10 -2 13 5 8 6 -3
14 -1 18 5 4 7 3 9 -2 6 -6 -3 -16 -2 -24 4 -8 5 -10 9 -4 9 7 0 14 9 17 20 3
11 1 18 -3 15 -5 -3 -7 10 -6 27 1 18 -2 42 -8 53 -8 18 -8 19 8 6 15 -13 16
-12 6 13 -13 35 -13 39 3 31 6 -4 3 1 -7 9 -11 9 -14 16 -8 16 8 0 11 14 9 40
-2 23 1 40 7 41 6 0 2 4 -9 9 -11 5 -14 9 -7 9 15 1 13 42 -3 53 -6 5 -6 8 2
8 14 0 15 59 1 77 -6 7 -5 14 2 18 6 4 8 16 4 27 -4 15 -3 19 7 14 8 -4 5 0
-5 8 -11 9 -15 16 -8 16 6 0 10 14 10 33 -1 17 0 37 2 42 5 19 0 46 -8 41 -5
-3 -9 1 -9 9 0 8 4 12 9 9 4 -3 8 0 8 5 0 6 -6 11 -12 11 -10 0 -9 3 1 9 9 6
10 10 2 16 -9 5 -9 10 0 21 7 8 7 14 1 14 -5 0 -13 7 -16 16 -3 8 -2 12 4 9
17 -10 11 7 -7 22 -10 8 -12 12 -5 8 7 -4 12 0 12 10 0 10 -5 13 -12 9 -7 -5
-9 -2 -5 9 3 9 -1 18 -10 21 -13 5 -13 9 -2 22 10 12 10 15 -2 12 -8 -2 -13 3
-11 10 2 11 -11 16 -31 13 -4 -1 -3 8 4 20 8 15 8 19 0 15 -6 -4 -14 -1 -17 8
-3 9 -12 12 -21 9 -11 -4 -14 -2 -9 5 9 15 -12 54 -25 46 -6 -3 -21 6 -35 21
-27 30 -33 22 -6 -9 17 -21 17 -21 -4 -3 -11 9 -24 14 -28 10 -4 -4 -4 0 -1 9
4 9 1 19 -6 24 -7 4 -10 3 -5 -4 3 -6 2 -14 -4 -17 -6 -4 -10 -3 -9 2 1 4 1
15 0 23 -1 13 -2 13 -11 0 -8 -13 -10 -12 -10 3 0 15 -3 16 -22 6 -21 -11 -22
-11 -9 5 8 9 11 19 7 23 -3 3 -6 2 -6 -4 0 -6 -9 -13 -20 -16 -10 -3 -19 -2
-18 2 2 20 -4 22 -17 5 -9 -12 -14 -14 -13 -5 2 10 -8 15 -34 16 -20 1 -35 -2
-33 -5 6 -9 -42 -6 -51 3 -4 4 -13 2 -20 -4 -8 -7 -14 -7 -19 1 -3 5 -11 10
-16 10 -6 0 -8 -4 -5 -8 3 -5 -1 -9 -9 -9 -8 0 -12 4 -9 9 3 4 0 8 -5 8 -6 0
-11 -5 -11 -11 0 -5 -5 -7 -10 -4 -8 5 -7 11 1 21 6 8 9 14 6 14 -3 0 -12 -8
-19 -18z m466 -118 c3 -8 2 -12 -4 -9 -6 3 -10 10 -10 16 0 14 7 11 14 -7z
m-3354 -1014 c0 -5 -5 -10 -11 -10 -5 0 -7 5 -4 10 3 6 8 10 11 10 2 0 4 -4 4
-10z m-3 -405 c0 -8 -4 -12 -9 -9 -5 3 -6 10 -3 15 9 13 12 11 12 -6z m-2
-115 c3 -5 1 -10 -4 -10 -6 0 -11 5 -11 10 0 6 2 10 4 10 3 0 8 -4 11 -10z
m12 -2036 c-3 -3 -12 -4 -19 -1 -8 3 -5 6 6 6 11 1 17 -2 13 -5z m1113 -1108
c0 -2 -8 -10 -17 -17 -16 -13 -17 -12 -4 4 13 16 21 21 21 13z m2135 -5 c3 -5
2 -12 -3 -15 -5 -3 -9 1 -9 9 0 17 3 19 12 6z m-1598 -16 c0 -8 -4 -12 -9 -9
-5 3 -6 10 -3 15 9 13 12 11 12 -6z m803 5 c0 -5 -5 -10 -11 -10 -5 0 -7 5 -4
10 3 6 8 10 11 10 2 0 4 -4 4 -10z m237 -5 c0 -8 -4 -12 -9 -9 -5 3 -6 10 -3
15 9 13 12 11 12 -6z m-862 -4 c3 -5 2 -12 -3 -15 -5 -3 -9 1 -9 9 0 17 3 19
12 6z m-665 -7 c0 -8 -19 -13 -24 -6 -3 5 1 9 9 9 8 0 15 -2 15 -3z m54 -10
c5 -14 4 -15 -9 -4 -17 14 -19 20 -6 20 5 0 12 -7 15 -16z m96 7 c0 -6 -4 -13
-10 -16 -5 -3 -10 1 -10 9 0 9 5 16 10 16 6 0 10 -4 10 -9z m1680 5 c0 -2 -7
-7 -16 -10 -8 -3 -12 -2 -9 4 6 10 25 14 25 6z m60 -8 c0 -11 -12 -10 -30 2
-12 7 -10 9 8 7 12 0 22 -5 22 -9z"/>
<path d="M4252 998 c-7 -7 -12 -16 -12 -21 0 -5 7 -1 16 8 15 14 17 14 31 -2
13 -16 13 -16 3 5 -12 25 -21 27 -38 10z"/>
<path d="M2710 980 c5 -10 8 -19 7 -21 -1 -2 0 -3 2 -1 11 6 6 39 -5 39 -9 0
-10 -5 -4 -17z"/>
<path d="M2980 996 c0 -2 8 -10 18 -17 15 -13 16 -12 3 4 -13 16 -21 21 -21
13z"/>
<path d="M3681 991 c-8 -5 -9 -11 -3 -15 5 -3 12 1 16 9 6 17 6 18 -13 6z"/>
<path d="M3853 985 c0 -8 4 -12 9 -9 4 3 8 9 8 15 0 5 -4 9 -8 9 -5 0 -9 -7
-9 -15z"/>
<path d="M4145 989 c-4 -6 -5 -12 -2 -15 2 -3 7 2 10 11 7 17 1 20 -8 4z"/>
<path d="M4503 983 c0 -9 4 -10 14 -2 7 6 13 12 13 14 0 1 -6 2 -13 2 -8 0
-14 -6 -14 -14z"/>
<path d="M4633 985 c0 -8 4 -12 9 -9 4 3 8 9 8 15 0 5 -4 9 -8 9 -5 0 -9 -7
-9 -15z"/>
<path d="M2595 981 c-3 -5 -2 -12 3 -15 5 -3 9 1 9 9 0 17 -3 19 -12 6z"/>
<path d="M4830 979 c0 -5 5 -7 10 -4 6 3 10 8 10 11 0 2 -4 4 -10 4 -5 0 -10
-5 -10 -11z"/>
</g>
</svg>
